<svg viewBox="0 0 64 64" xmlns="http://www.w3.org/2000/svg"><g id="gradient" fill="rgb(0,0,0)"><path d="m55 63h-46a1 1 0 0 1 -1-1v-60a1 1 0 0 1 1-1h33a1 1 0 0 1 .707.293l13 13a1 1 0 0 1 .293.707v47a1 1 0 0 1 -1 1zm-45-2h44v-45.586l-12.414-12.414h-31.586z" fill="rgb(0,0,0)" style="fill: rgb(6, 113, 133, 0.5);"></path><path d="m55 16h-13a1 1 0 0 1 -1-1v-13a1 1 0 0 1 1.707-.707l13 13a1 1 0 0 1 -.707 1.707zm-12-2h9.586l-9.586-9.586z" fill="rgb(0,0,0)" style="fill: rgb(6, 113, 133, 0.5);"></path><path d="m45 22h-26a1 1 0 0 1 0-2h26a1 1 0 0 1 0 2z" fill="rgb(0,0,0)" style="fill: rgb(6, 113, 133, 0.5);"></path><path d="m45 29h-26a1 1 0 0 1 0-2h26a1 1 0 0 1 0 2z" fill="rgb(0,0,0)" style="fill: rgb(6, 113, 133, 0.5);"></path><path d="m45 36h-26a1 1 0 0 1 0-2h26a1 1 0 0 1 0 2z" fill="rgb(0,0,0)" style="fill: rgb(6, 113, 133, 0.5);"></path><path d="m45 43h-26a1 1 0 0 1 0-2h26a1 1 0 0 1 0 2z" fill="rgb(0,0,0)" style="fill: rgb(6, 113, 133, 0.5);"></path><path d="m45 50h-26a1 1 0 0 1 0-2h26a1 1 0 0 1 0 2z" fill="rgb(0,0,0)" style="fill: rgb(6, 113, 133, 0.5);"></path><path d="m45 22h-26a1 1 0 0 1 0-2h26a1 1 0 0 1 0 2z" fill="rgb(0,0,0)" style="fill: rgb(6, 113, 133, 0.5);"></path><path d="m45 29h-26a1 1 0 0 1 0-2h26a1 1 0 0 1 0 2z" fill="rgb(0,0,0)" style="fill: rgb(6, 113, 133, 0.5);"></path><path d="m45 36h-26a1 1 0 0 1 0-2h26a1 1 0 0 1 0 2z" fill="rgb(0,0,0)" style="fill: rgb(6, 113, 133, 0.5);"></path><path d="m45 43h-26a1 1 0 0 1 0-2h26a1 1 0 0 1 0 2z" fill="rgb(0,0,0)" style="fill: rgb(6, 113, 133, 0.5);"></path><path d="m45 50h-26a1 1 0 0 1 0-2h26a1 1 0 0 1 0 2z" fill="rgb(0,0,0)" style="fill: rgb(6, 113, 133, 0.5);"></path></g></svg>