<svg xmlns="http://www.w3.org/2000/svg" viewBox="0 0 500 150">
    <path fill="#0098B0" d="M473.91,37.196c-0.988-4.548-2.714-8.889-5.44-12.655c-4.349-6.008-10.045-10.259-16.997-12.803
	c-6.517-2.386-13.247-3.027-20.122-2.213c-7.33,0.868-14.003,3.452-20.032,7.71c-4.139,2.924-7.595,6.532-10.504,10.649
	c-1.731,2.451-3.132,5.107-4.291,7.892c-3.094,7.435-4.109,15.142-2.956,23.099c1.011,6.978,3.701,13.252,8.286,18.665
	c1.38,1.629,2.88,3.139,4.532,4.493c6.873,5.63,14.848,8.317,23.64,8.729c3.607,0.169,7.198-0.103,10.745-0.827
	c5.134-1.05,9.968-2.877,14.425-5.646c4.322-2.684,8.056-6.018,11.155-10.074c5.192-6.797,8.078-14.13,8.551-22.712
	C475.162,46.785,474.928,41.881,473.91,37.196z M454.422,63.415c-4.131,5.986-9.808,9.698-17.005,10.934
	c-5.33,0.916-10.475,0.254-15.308-2.25c-4.472-2.318-7.735-5.824-9.846-10.387c-1.764-3.811-2.454-7.842-2.117-12.012
	c0.534-6.601,3.021-12.364,7.698-17.112c1.716-1.741,3.709-3.123,5.838-4.329c4.491-2.544,9.34-3.329,14.412-2.984
	c2.748,0.187,5.395,0.878,7.883,2.059c1.516,0.72,2.921,1.653,4.258,2.676c5.156,3.947,7.828,9.277,8.648,15.615
	c0.119,0.915,0.017,1.858,0.017,2.789C458.992,53.878,457.522,58.922,454.422,63.415z"/>
    <path fill="#0098B0" d="M86.656,37.678c-0.324,0.899-0.424,1.764-0.594,2.608c-2.291,11.349-4.575,22.7-6.852,34.052
	c-0.944,4.705-1.864,9.414-2.797,14.121c-0.245,1.235-0.249,1.239-1.494,1.239c-4.957,0.002-9.914,0.002-14.87,0
	c-1.278-0.001-1.291-0.019-1.043-1.255c2.485-12.352,4.977-24.703,7.456-37.056c2.132-10.62,4.249-21.243,6.374-31.865
	c0.553-2.764,1.109-5.528,1.669-8.291c0.186-0.915,0.198-0.93,1.104-0.931c4.536-0.005,9.072,0.007,13.609-0.014
	c0.584-0.003,0.932,0.165,1.205,0.701c1.036,2.031,2.118,4.04,3.183,6.057c1.695,3.211,3.388,6.424,5.084,9.634
	c1.976,3.74,3.957,7.476,5.931,11.216c2.62,4.963,5.239,9.926,7.851,14.892c1.453,2.762,2.892,5.532,4.337,8.299
	c0.22,0.421,0.404,0.863,0.779,1.264c0.211-0.221,0.243-0.481,0.293-0.732c1.816-9.058,3.632-18.115,5.447-27.173
	c1.556-7.763,3.11-15.526,4.668-23.289c0.169-0.844,0.177-0.855,1.066-0.856c5.077-0.004,10.154-0.002,15.231-0.002
	c0.15,0,0.3,0.007,0.45,0.009c0.302,0.005,0.447,0.159,0.404,0.457c-0.069,0.475-0.138,0.95-0.231,1.42
	c-1.386,7.035-2.775,14.07-4.166,21.104c-1.454,7.357-2.914,14.713-4.367,22.07c-2,10.125-3.996,20.251-5.993,30.376
	c-0.191,0.971-0.376,1.943-0.566,2.914c-0.202,1.031-0.21,1.039-1.293,1.048c-0.811,0.006-1.622,0.002-2.433,0.002
	c-3.665,0-7.33-0.02-10.995,0.015c-0.788,0.008-1.248-0.222-1.614-0.954c-1.247-2.496-2.576-4.952-3.863-7.428
	c-2.905-5.592-5.743-11.22-8.723-16.771c-2.882-5.368-5.656-10.79-8.48-16.188c-1.725-3.297-3.428-6.605-5.145-9.906
	C87.141,38.204,87.02,37.924,86.656,37.678z"/>
    <path fill="#0098B0" d="M347.88,10.297c5.257,0,10.515-0.029,15.772,0.011c3.348,0.025,6.646,0.468,9.823,1.581
	c6.255,2.192,11.021,6.116,13.991,12.102c1.198,2.415,1.899,4.988,2.227,7.654c0.587,4.781,0.126,9.468-1.482,14.015
	c-1.6,4.522-4.277,8.296-8.042,11.286c-3.53,2.804-7.572,4.475-11.95,5.405c-0.147,0.031-0.296,0.048-0.443,0.079
	c-0.429,0.091-0.518,0.349-0.359,0.732c0.3,0.721,0.599,1.441,0.893,2.164c2.333,5.724,4.663,11.448,6.997,17.171
	c0.804,1.972,1.619,3.941,2.428,5.911c0.091,0.222,0.194,0.44,0.269,0.668c0.159,0.48,0.102,0.561-0.426,0.612
	c-0.179,0.017-0.36,0.011-0.54,0.011c-5.227,0-10.455-0.013-15.682,0.015c-0.773,0.004-1.168-0.237-1.463-0.974
	c-2.209-5.516-4.447-11.02-6.708-16.514c-2.244-5.936-4.98-11.835-7.366-17.795c-0.658-1.644-1.338-3.278-2.007-4.918
	c-0.068-0.167-0.139-0.333-0.194-0.504c-0.09-0.281-0.023-0.479,0.311-0.494c0.27-0.012,0.54-0.015,0.811-0.015
	c4.446-0.001,8.893,0.043,13.338-0.017c2.893-0.039,5.65-0.719,8.158-2.23c3.007-1.812,4.756-4.5,5.461-7.903
	c0.301-1.451,0.388-2.905,0.056-4.369c-0.584-2.577-2.174-4.337-4.418-5.623c-1.83-1.049-3.813-1.453-5.874-1.468
	c-4.987-0.037-9.974-0.014-14.961-0.011c-0.974,0.001-0.967,0.01-1.155,0.949c-2.478,12.39-4.961,24.779-7.437,37.169
	c-1.54,7.707-3.061,15.419-4.617,23.123c-0.326,1.617,0.048,1.581-1.936,1.58c-4.987-0.002-9.974,0-14.961-0.002
	c-1.352-0.001-1.362-0.007-1.097-1.356c1.273-6.477,2.549-12.953,3.829-19.428c1.408-7.122,2.824-14.241,4.231-21.363
	c1.25-6.328,2.497-12.657,3.739-18.987c1.121-5.711,2.235-11.423,3.352-17.134c0.035-0.177,0.095-0.349,0.117-0.527
	c0.055-0.436,0.293-0.628,0.73-0.605c0.27,0.014,0.541-0.001,0.811-0.001C337.365,10.297,342.622,10.297,347.88,10.297z"/>
    <path fill="#0098B0" d="M178.853,64.901c0.361-0.123,0.469-0.425,0.618-0.67c4.934-8.097,9.86-16.199,14.792-24.297
	c2.014-3.306,4.037-6.606,6.059-9.907c3.854-6.293,7.72-12.58,11.553-18.887c0.374-0.616,0.775-0.861,1.5-0.857
	c5.256,0.029,10.512,0.013,15.768,0.021c0.314,0.001,0.744-0.156,0.918,0.159c0.17,0.307-0.169,0.6-0.333,0.871
	c-3.232,5.34-6.504,10.655-9.696,16.019c-2.808,4.718-5.674,9.401-8.514,14.1c-3.461,5.727-6.867,11.488-10.414,17.161
	c-3.277,5.242-6.446,10.548-9.669,15.822c-2.925,4.787-5.819,9.594-8.691,14.414c-0.396,0.665-0.86,0.866-1.598,0.862
	c-4.745-0.026-9.491-0.013-14.237-0.014c-0.12,0-0.24,0.001-0.36-0.004c-0.765-0.032-0.846-0.089-0.996-0.867
	c-0.978-5.065-1.946-10.132-2.926-15.197c-0.94-4.858-1.893-9.714-2.833-14.572c-1.419-7.332-2.83-14.666-4.247-21.999
	c-1.264-6.537-2.524-13.075-3.803-19.609c-0.38-1.94-0.675-3.899-1.212-5.807c-0.065-0.23-0.097-0.47-0.136-0.706
	c-0.064-0.393,0.048-0.649,0.505-0.635c0.18,0.006,0.36-0.006,0.54-0.006c5.256,0,10.512,0,15.768,0c0.03,0,0.06,0,0.09,0
	c1.037,0.009,1.039,0.009,1.227,1c1.635,8.604,3.261,17.209,4.905,25.811c1.655,8.661,3.329,17.318,4.991,25.977
	C178.54,63.694,178.564,64.325,178.853,64.901z"/>
    <path fill="#0098B0" d="M291.699,10.297c9.341,0,18.683,0,28.024,0c1.351,0,1.363,0.005,1.113,1.333
	c-0.896,4.746-1.794,9.49-2.693,14.234c-0.033,0.177-0.097,0.348-0.122,0.525c-0.047,0.322-0.227,0.473-0.546,0.476
	c-0.3,0.003-0.601,0.011-0.901,0.011c-5.827,0.001-11.654,0.001-17.481,0.001c-0.12,0-0.24,0-0.36,0
	c-1.022,0.008-1.027,0.007-1.223,0.992c-2.016,10.148-4.027,20.297-6.047,30.444c-1.094,5.499-2.204,10.996-3.303,16.494
	c-0.923,4.619-1.84,9.24-2.764,13.86c-0.203,1.016-0.211,1.027-1.215,1.027c-5.256,0.005-10.513,0.005-15.769,0
	c-1.119-0.001-1.151-0.044-0.94-1.111c0.87-4.386,1.744-8.771,2.618-13.155c3.131-15.709,6.265-31.418,9.391-47.128
	c0.343-1.722,0.192-1.416-1.173-1.419c-5.887-0.012-11.774-0.005-17.661-0.006c-1.344,0-1.346-0.004-1.088-1.365
	c0.9-4.744,1.799-9.489,2.705-14.232c0.187-0.977,0.2-0.981,1.23-0.982C272.896,10.297,282.298,10.297,291.699,10.297z"/>
    <path fill="#0098B0" d="M49.771,10.297c2.674,0,5.347-0.003,8.021,0.002c1.04,0.002,1.06,0.043,0.851,1.089
	c-1.884,9.442-3.762,18.886-5.649,28.327c-0.741,3.708-1.444,7.424-2.261,11.116c-1.659,7.5-3.074,15.049-4.601,22.575
	c-1.026,5.059-2.031,10.121-3.047,15.182c-0.041,0.206-0.098,0.408-0.139,0.614c-0.063,0.313-0.262,0.46-0.568,0.474
	c-0.27,0.013-0.54,0.021-0.81,0.021c-5.137,0.001-10.274,0.002-15.411,0c-1.288,0-1.278-0.003-1.02-1.287
	c1.425-7.087,2.842-14.176,4.267-21.264c1.478-7.355,2.968-14.708,4.441-22.064c1.179-5.884,2.338-11.772,3.513-17.658
	c0.839-4.206,1.69-8.409,2.535-12.614c0.225-1.118,0.445-2.236,0.667-3.355c0.229-1.154,0.229-1.157,1.369-1.158
	C44.544,10.296,47.158,10.297,49.771,10.297z"/>
    <path fill="#0098B0" d="M229.308,89.699c-2.433,0-4.865,0-7.298,0c-0.21,0-0.42,0.002-0.631-0.001
	c-1.025-0.016-1.064-0.064-0.86-1.104c0.179-0.913,0.368-1.823,0.548-2.736c1.608-8.18,3.212-16.361,4.824-24.54
	c1.276-6.473,2.565-12.942,3.841-19.415c1.235-6.267,2.461-12.535,3.691-18.802c0.786-4.002,1.571-8.003,2.359-12.005
	c0.147-0.746,0.186-0.793,0.938-0.794c5.466-0.006,10.931-0.007,16.397-0.001c0.834,0.001,0.877,0.047,0.711,0.895
	c-0.747,3.827-1.502,7.652-2.268,11.475c-1.45,7.231-2.923,14.458-4.363,21.691c-1.493,7.501-2.958,15.008-4.436,22.512
	c-1.42,7.208-2.841,14.416-4.261,21.624c-0.017,0.088-0.028,0.178-0.047,0.266c-0.191,0.879-0.228,0.927-1.125,0.93
	c-2.673,0.009-5.346,0.003-8.018,0.003C229.308,89.698,229.308,89.698,229.308,89.699z"/>
</svg>